<svg xmlns="http://www.w3.org/2000/svg" width="160" height="24" viewBox="0 0 160 24">
  <g id="logo-white" transform="translate(-156 -748)">
    <path id="Path_2349" data-name="Path 2349" d="M12.24-61.323c6.348,0,10.124-2.743,10.124-7.641,0-9.11-14.356-5.649-14.356-9.763,0-1.5,1.432-2.122,3.385-2.122,2.344,0,3.744.914,3.971,2.514a.318.318,0,0,0,.326.294h5.632a.27.27,0,0,0,.293-.327c-.814-4.963-4.72-6.955-10.124-6.955-6.185,0-9.538,2.841-9.538,7.216,0,9.273,14.258,5.616,14.258,9.992,0,1.665-1.367,2.351-3.874,2.351-2.93,0-4.232-1.208-4.59-3.461a.285.285,0,0,0-.293-.261H1.791c-.2,0-.293.1-.26.294C2.051-64,6.023-61.323,12.24-61.323ZM30.9-82.711H25.624a.292.292,0,0,0-.293.294l.033,3.918H23.476a.292.292,0,0,0-.293.294v3.494a.292.292,0,0,0,.293.294H25.4L25.331-67c0,4.082,2.865,5.682,6.055,5.682a10.655,10.655,0,0,0,3.483-.686.353.353,0,0,0,.228-.359V-65.5c0-.2-.13-.327-.326-.261a7.26,7.26,0,0,1-1.953.294c-.879,0-1.628-.359-1.628-1.829l-.033-7.118h3.678a.292.292,0,0,0,.293-.294V-78.2a.292.292,0,0,0-.293-.294H31.158l.033-3.918A.292.292,0,0,0,30.9-82.711Zm16.73,5.771a5.8,5.8,0,0,0-4.59-1.959c-4.622,0-7.552,3.918-7.552,8.784,0,4.9,2.539,8.686,7.292,8.686a6.184,6.184,0,0,0,4.948-2.22l-.092,2.033a.259.259,0,0,0,.293.294h5.208a.292.292,0,0,0,.293-.294l-.071-8.5.1-8.163a.292.292,0,0,0-.293-.294H47.823c-.2,0-.26.1-.26.294ZM44.6-65.25c-1.986.033-3.158-1.567-3.158-5,0-3.3,1.139-4.833,3.223-4.8,2.051,0,3.125,1.6,3.093,4.963C47.726-66.784,46.586-65.25,44.6-65.25ZM62.3-82.711H57.026a.292.292,0,0,0-.293.294l.033,3.918H54.877a.292.292,0,0,0-.293.294v3.494a.292.292,0,0,0,.293.294H56.8L56.733-67c0,4.082,2.865,5.682,6.055,5.682a10.655,10.655,0,0,0,3.483-.686.353.353,0,0,0,.228-.359V-65.5c0-.2-.13-.327-.326-.261a7.26,7.26,0,0,1-1.953.294c-.879,0-1.628-.359-1.628-1.829l-.033-7.118h3.678a.292.292,0,0,0,.293-.294V-78.2a.292.292,0,0,0-.293-.294H62.56l.033-3.918A.292.292,0,0,0,62.3-82.711Zm20.255,6.433H73.961l.071-8.751a.292.292,0,0,0-.293-.294h-5.6a.292.292,0,0,0-.293.294L68-73.4l-.2,11.788a.292.292,0,0,0,.293.294h5.6a.292.292,0,0,0,.293-.294L73.928-71.9h8.626L82.42-61.617a.292.292,0,0,0,.293.294h5.632a.292.292,0,0,0,.293-.294L88.512-73.4l.169-11.624a.292.292,0,0,0-.293-.294H82.756a.292.292,0,0,0-.293.294ZM96.213-61.323a6.282,6.282,0,0,0,5.306-2.449l-.113,2.155a.259.259,0,0,0,.293.294h5.078a.292.292,0,0,0,.293-.294l-.017-8.653.1-7.967a.292.292,0,0,0-.293-.294h-5.4a.292.292,0,0,0-.293.294l.065,6.824v.522c0,3.918-1.628,5.29-3.158,5.29-1.2,0-2.051-.882-2.051-2.384v-3.429l.1-6.824a.292.292,0,0,0-.293-.294H90.451a.292.292,0,0,0-.293.294l.1,6.824v3.559C90.256-63.87,92.469-61.323,96.213-61.323Zm23.175-17.469a6.245,6.245,0,0,0-4.818,2.057v-8.288a.292.292,0,0,0-.293-.294h-5.306a.292.292,0,0,0-.293.294l.13,12.37-.083,11.037a.292.292,0,0,0,.293.294h5.306c.2,0,.26-.1.26-.294l-.08-1.665a5.864,5.864,0,0,0,4.622,1.959c4.622,0,7.552-3.918,7.552-8.784C126.679-75,124.108-78.792,119.388-78.792Zm-1.921,13.616c-2.018-.033-3.093-1.633-3.06-4.963.033-3.265,1.139-4.8,3.158-4.8,1.986,0,3.125,1.567,3.125,4.963C120.69-66.743,119.583-65.143,117.467-65.176Zm18.5,3.853c4.72,0,8.041-2.122,8.041-5.682,0-7.086-10.71-4.114-10.71-6.988,0-1.045.781-1.469,2.051-1.469a2.277,2.277,0,0,1,2.539,1.894.285.285,0,0,0,.293.261h4.85c.2,0,.326-.1.293-.327-.488-3.494-3.516-5.355-8.073-5.355s-7.52,2.057-7.52,5.616c0,6.955,10.71,4.245,10.71,6.922,0,1.012-.814,1.535-2.474,1.535-1.79,0-2.767-.653-2.93-2.122a.318.318,0,0,0-.326-.294H127.6a.259.259,0,0,0-.293.294C127.6-63.25,131.047-61.323,135.963-61.323Z" transform="translate(171.997 833.323)" fill="#fff"/>
    <rect id="Rectangle_1546" data-name="Rectangle 1546" width="3.285" height="12.273" rx="0.5" transform="translate(156 755.091)" fill="#fff"/>
    <rect id="Rectangle_1548" data-name="Rectangle 1548" width="3.285" height="11.182" rx="0.5" transform="translate(165.856 752.636)" fill="#fff"/>
    <rect id="Rectangle_1547" data-name="Rectangle 1547" width="3.285" height="12" rx="0.5" transform="translate(160.928 758.636)" fill="#fff"/>
  </g>
</svg>