<svg xmlns="http://www.w3.org/2000/svg" width="202" height="30" viewBox="0 0 202 30">
  <g id="Logo" transform="translate(-591 -455)">
    <path id="Path_1" data-name="Path 1" d="M4.751,32.429c.43,1.731,2.2,2.933,4.924,2.933,2.151,0,3.873-.865,3.873-2.356,0-2.019-1.912-2.5-6.311-3.99-3.347-1.106-6.168-2.74-6.168-6.2,0-3.654,3.681-5.913,7.506-5.913,4.924,0,7.937,2.788,8.128,6.3H12.3c-.191-1.779-1.912-2.6-3.586-2.6-1.53,0-3.251.769-3.251,2.26,0,1.683,1.817,2.067,6.168,3.7,4.3,1.442,6.263,3.558,6.263,6.49,0,3.8-3.634,6.01-8.319,6.01-5.116,0-8.8-2.26-9.18-6.635Z" transform="translate(590.6 445.889)"/>
    <path id="Path_2" data-name="Path 2" d="M41,27.906A11.067,11.067,0,0,1,52.379,16.8a11.107,11.107,0,1,1,0,22.212A11.067,11.067,0,0,1,41,27.906Zm18.264,0a6.815,6.815,0,0,0-6.885-6.923,6.924,6.924,0,1,0,0,13.846A6.815,6.815,0,0,0,59.264,27.906Z" transform="translate(569.411 445.94)"/>
    <path id="Path_3" data-name="Path 3" d="M215.1,27.906a11.309,11.309,0,1,1,11.379,11.106A11.067,11.067,0,0,1,215.1,27.906Zm18.264,0a6.815,6.815,0,0,0-6.885-6.923,6.923,6.923,0,1,0,6.885,6.923Z" transform="translate(478.549 445.94)"/>
    <path id="Path_4" data-name="Path 4" d="M100.451,31.154H96.1V2.5h4.351Z" transform="translate(540.655 453.365)"/>
    <path id="Path_5" data-name="Path 5" d="M134.433,17.7V39.046h-4.4V34.238a6.754,6.754,0,0,1-2.821,3.654,8.315,8.315,0,0,1-4.638,1.3,7.792,7.792,0,0,1-5.929-2.4A9.7,9.7,0,0,1,114.4,29.96V17.7h4.4V29.479a6.229,6.229,0,0,0,1.482,4.471,5.137,5.137,0,0,0,4.016,1.587,5.6,5.6,0,0,0,4.207-1.683,7.07,7.07,0,0,0,1.578-4.952V17.7Z" transform="translate(531.104 445.473)"/>
    <path id="Path_6" data-name="Path 6" d="M176.774,27.308v3.846H174.1a7.124,7.124,0,0,1-5.116-1.635c-1.147-1.106-1.769-2.933-1.769-5.481V13.606H164.2v-3.8h3.012V2.5h4.4V9.808h5.164v3.8h-5.164V24.135a3.634,3.634,0,0,0,.669,2.5,3.113,3.113,0,0,0,2.343.673h2.151Z" transform="translate(505.114 453.365)"/>
    <rect id="Rectangle_1" data-name="Rectangle 1" width="4.351" height="21.346" transform="translate(685.569 463.173)"/>
    <path id="Path_7" data-name="Path 7" d="M323.955,27.212h15.491v3.942H319.7V27.212c0-8.462,15.586-9.087,15.586-15.962,0-2.788-2.1-4.808-5.211-4.808-3.681,0-6.263,2.212-6.263,5.192H319.7c0-5.1,4.4-9.135,10.423-9.135,5.307,0,9.323,3.51,9.323,8.894C339.446,21.058,323.955,21.731,323.955,27.212Z" transform="translate(423.959 453.365)"/>
    <path id="Path_8" data-name="Path 8" d="M287.733,19.254a9.7,9.7,0,0,1,2.247,6.827V38.629h-4.4V26.561a6.106,6.106,0,0,0-1.482-4.423,5.137,5.137,0,0,0-4.016-1.587,5.6,5.6,0,0,0-4.207,1.683,6.862,6.862,0,0,0-1.578,4.9V38.581h-4.4v-21.3h4.4V21.9a7.352,7.352,0,0,1,2.821-3.7,8.268,8.268,0,0,1,4.59-1.3A7.6,7.6,0,0,1,287.733,19.254Z" transform="translate(449.95 445.891)"/>
    <g id="Group_1" data-name="Group 1" transform="translate(765.318 455.865)">
      <path id="Path_9" data-name="Path 9" d="M375.949,11.779a11.487,11.487,0,0,0-5.785,1.442l1.052-6.731h12.144V2.5H367.677l-2.534,16.538h4.16c.861-2.4,3.538-3.462,5.785-3.462,3.395,0,6.072,2.163,6.072,5.962a5.887,5.887,0,0,1-6.12,5.913,5.743,5.743,0,0,1-5.594-3.462H365c.813,4.183,4.446,7.644,10.088,7.644a9.951,9.951,0,0,0,10.232-9.9C385.32,15.577,381.064,11.779,375.949,11.779Z" transform="translate(-365 -2.5)"/>
    </g>
    <g id="Group_2" data-name="Group 2" transform="translate(786.211 455.433)">
      <path id="Path_10" data-name="Path 10" d="M415.489,5.013A3.395,3.395,0,1,1,412.095,1.6,3.417,3.417,0,0,1,415.489,5.013Zm-.765,0a2.677,2.677,0,1,0-2.677,2.692A2.68,2.68,0,0,0,414.724,5.013Zm-2.008.529.717,1.154h-.861l-.622-1.058h-.383V6.7h-.717V3.187h1.291a1.183,1.183,0,0,1,1.291,1.2A1.1,1.1,0,0,1,412.716,5.542Zm0-1.106c0-.385-.239-.529-.574-.529h-.574v1.01h.574C412.477,4.917,412.716,4.821,412.716,4.437Z" transform="translate(-408.7 -1.6)"/>
    </g>
    <ellipse id="Ellipse_1" data-name="Ellipse 1" cx="2.725" cy="2.74" rx="2.725" ry="2.74" transform="translate(685.044 455)"/>
  </g>
</svg>
